<mxfile host="app.diagrams.net" modified="2023-09-23T04:41:51.524Z" agent="Mozilla/5.0 (Windows NT 10.0; Win64; x64) AppleWebKit/537.36 (KHTML, like Gecko) Chrome/116.0.0.0 Safari/537.36" etag="5dVvpaqPFBZ2POUdBVLI" version="21.8.0" type="device">
  <diagram name="Page-1" id="D8Nw5FXwgEszm3tuwScA">
    <mxGraphModel dx="1615" dy="1058" grid="0" gridSize="10" guides="1" tooltips="1" connect="1" arrows="1" fold="1" page="0" pageScale="1" pageWidth="850" pageHeight="1100" math="0" shadow="0">
      <root>
        <mxCell id="0" />
        <mxCell id="1" parent="0" />
        <mxCell id="_K5TgTp11b02C-DQ9G_8-1" value="AWS Account" style="points=[[0,0],[0.25,0],[0.5,0],[0.75,0],[1,0],[1,0.25],[1,0.5],[1,0.75],[1,1],[0.75,1],[0.5,1],[0.25,1],[0,1],[0,0.75],[0,0.5],[0,0.25]];outlineConnect=0;gradientColor=none;html=1;whiteSpace=wrap;fontSize=12;fontStyle=0;container=1;pointerEvents=0;collapsible=0;recursiveResize=0;shape=mxgraph.aws4.group;grIcon=mxgraph.aws4.group_account;strokeColor=#CD2264;fillColor=none;verticalAlign=top;align=left;spacingLeft=30;fontColor=#CD2264;dashed=0;movable=1;resizable=1;rotatable=1;deletable=1;editable=1;locked=0;connectable=1;" parent="1" vertex="1">
          <mxGeometry x="-313" y="86" width="1549" height="1215" as="geometry" />
        </mxCell>
        <mxCell id="_K5TgTp11b02C-DQ9G_8-2" value="VPC" style="sketch=0;outlineConnect=0;gradientColor=none;html=1;whiteSpace=wrap;fontSize=12;fontStyle=0;shape=mxgraph.aws4.group;grIcon=mxgraph.aws4.group_vpc;strokeColor=#f55656;fillColor=none;verticalAlign=top;align=left;spacingLeft=30;fontColor=#879196;dashed=0;movable=1;resizable=1;rotatable=1;deletable=1;editable=1;locked=0;connectable=1;" parent="_K5TgTp11b02C-DQ9G_8-1" vertex="1">
          <mxGeometry x="74" y="91" width="1361" height="1035" as="geometry" />
        </mxCell>
        <mxCell id="SP3IcY2rd0yNS91NgwFC-3" value="Public subnet" style="points=[[0,0],[0.25,0],[0.5,0],[0.75,0],[1,0],[1,0.25],[1,0.5],[1,0.75],[1,1],[0.75,1],[0.5,1],[0.25,1],[0,1],[0,0.75],[0,0.5],[0,0.25]];outlineConnect=0;gradientColor=none;html=1;whiteSpace=wrap;fontSize=12;fontStyle=0;container=1;pointerEvents=0;collapsible=0;recursiveResize=0;shape=mxgraph.aws4.group;grIcon=mxgraph.aws4.group_security_group;grStroke=0;strokeColor=#248814;fillColor=#E9F3E6;verticalAlign=top;align=left;spacingLeft=30;fontColor=#248814;dashed=0;movable=1;resizable=1;rotatable=1;deletable=1;editable=1;locked=0;connectable=1;" parent="_K5TgTp11b02C-DQ9G_8-1" vertex="1">
          <mxGeometry x="180" y="206" width="1073" height="130" as="geometry" />
        </mxCell>
        <mxCell id="SP3IcY2rd0yNS91NgwFC-16" value="UI Ingress" style="outlineConnect=0;dashed=0;verticalLabelPosition=bottom;verticalAlign=top;align=center;html=1;shape=mxgraph.aws3.application_load_balancer;fillColor=#F58536;gradientColor=none;fontSize=10;" parent="SP3IcY2rd0yNS91NgwFC-3" vertex="1">
          <mxGeometry x="176" y="37.25" width="50" height="55.5" as="geometry" />
        </mxCell>
        <mxCell id="SP3IcY2rd0yNS91NgwFC-4" value="App Subnet" style="points=[[0,0],[0.25,0],[0.5,0],[0.75,0],[1,0],[1,0.25],[1,0.5],[1,0.75],[1,1],[0.75,1],[0.5,1],[0.25,1],[0,1],[0,0.75],[0,0.5],[0,0.25]];outlineConnect=0;gradientColor=none;html=1;whiteSpace=wrap;fontSize=12;fontStyle=0;container=0;pointerEvents=0;collapsible=0;recursiveResize=0;shape=mxgraph.aws4.group;grIcon=mxgraph.aws4.group_security_group;grStroke=0;strokeColor=#147EBA;fillColor=#E6F2F8;verticalAlign=top;align=left;spacingLeft=30;fontColor=#147EBA;dashed=0;" parent="_K5TgTp11b02C-DQ9G_8-1" vertex="1">
          <mxGeometry x="181" y="429" width="1070" height="224" as="geometry" />
        </mxCell>
        <mxCell id="KCucEBvM2V7j6gohzdWu-1" value="" style="rounded=1;arcSize=10;dashed=1;strokeColor=#f55656;fillColor=none;gradientColor=none;dashPattern=8 4;strokeWidth=2;fontSize=16;" parent="_K5TgTp11b02C-DQ9G_8-1" vertex="1">
          <mxGeometry x="224" y="450" width="975" height="184" as="geometry" />
        </mxCell>
        <mxCell id="SP3IcY2rd0yNS91NgwFC-28" value="DB Subnet" style="points=[[0,0],[0.25,0],[0.5,0],[0.75,0],[1,0],[1,0.25],[1,0.5],[1,0.75],[1,1],[0.75,1],[0.5,1],[0.25,1],[0,1],[0,0.75],[0,0.5],[0,0.25]];outlineConnect=0;gradientColor=none;html=1;whiteSpace=wrap;fontSize=12;fontStyle=0;container=1;pointerEvents=0;collapsible=0;recursiveResize=0;shape=mxgraph.aws4.group;grIcon=mxgraph.aws4.group_security_group;grStroke=0;strokeColor=#147EBA;fillColor=#E6F2F8;verticalAlign=top;align=left;spacingLeft=30;fontColor=#147EBA;dashed=1;" parent="_K5TgTp11b02C-DQ9G_8-1" vertex="1">
          <mxGeometry x="187" y="714" width="1067" height="130" as="geometry" />
        </mxCell>
        <mxCell id="SP3IcY2rd0yNS91NgwFC-53" style="edgeStyle=none;curved=0;rounded=0;orthogonalLoop=1;jettySize=auto;html=1;fontSize=12;startSize=8;endSize=8;dashed=1;exitX=0;exitY=0.5;exitDx=0;exitDy=0;" parent="_K5TgTp11b02C-DQ9G_8-1" source="KCucEBvM2V7j6gohzdWu-1" target="SP3IcY2rd0yNS91NgwFC-51" edge="1">
          <mxGeometry relative="1" as="geometry">
            <Array as="points">
              <mxPoint x="146" y="544" />
              <mxPoint x="146" y="972" />
            </Array>
          </mxGeometry>
        </mxCell>
        <mxCell id="SP3IcY2rd0yNS91NgwFC-54" value="log" style="edgeLabel;html=1;align=center;verticalAlign=middle;resizable=0;points=[];fontSize=16;" parent="SP3IcY2rd0yNS91NgwFC-53" vertex="1" connectable="0">
          <mxGeometry x="-0.0748" relative="1" as="geometry">
            <mxPoint as="offset" />
          </mxGeometry>
        </mxCell>
        <mxCell id="SP3IcY2rd0yNS91NgwFC-6" value="" style="rounded=1;arcSize=10;dashed=1;strokeColor=#F59D56;fillColor=none;gradientColor=none;dashPattern=8 4;strokeWidth=2;fontSize=16;" parent="_K5TgTp11b02C-DQ9G_8-1" vertex="1">
          <mxGeometry x="264" y="497" width="214" height="103" as="geometry" />
        </mxCell>
        <mxCell id="SP3IcY2rd0yNS91NgwFC-15" value="UI Pod" style="sketch=0;html=1;dashed=0;whitespace=wrap;fillColor=#2875E2;strokeColor=#ffffff;points=[[0.005,0.63,0],[0.1,0.2,0],[0.9,0.2,0],[0.5,0,0],[0.995,0.63,0],[0.72,0.99,0],[0.5,1,0],[0.28,0.99,0]];verticalLabelPosition=bottom;align=center;verticalAlign=top;shape=mxgraph.kubernetes.icon;prIcon=pod;fontSize=10;" parent="_K5TgTp11b02C-DQ9G_8-1" vertex="1">
          <mxGeometry x="284" y="525.25" width="42" height="31.5" as="geometry" />
        </mxCell>
        <mxCell id="SP3IcY2rd0yNS91NgwFC-17" style="edgeStyle=none;curved=1;rounded=0;orthogonalLoop=1;jettySize=auto;html=1;entryX=0.525;entryY=0.004;entryDx=0;entryDy=0;entryPerimeter=0;fontSize=12;startSize=8;endSize=8;" parent="_K5TgTp11b02C-DQ9G_8-1" source="SP3IcY2rd0yNS91NgwFC-16" target="SP3IcY2rd0yNS91NgwFC-6" edge="1">
          <mxGeometry relative="1" as="geometry" />
        </mxCell>
        <mxCell id="SP3IcY2rd0yNS91NgwFC-18" value="80" style="edgeLabel;html=1;align=center;verticalAlign=middle;resizable=0;points=[];fontSize=16;" parent="SP3IcY2rd0yNS91NgwFC-17" vertex="1" connectable="0">
          <mxGeometry x="-0.0458" relative="1" as="geometry">
            <mxPoint as="offset" />
          </mxGeometry>
        </mxCell>
        <mxCell id="SP3IcY2rd0yNS91NgwFC-26" value="&lt;b&gt;UI&amp;nbsp;&lt;/b&gt;" style="text;html=1;strokeColor=none;fillColor=none;align=center;verticalAlign=middle;whiteSpace=wrap;rounded=0;fontSize=10;" parent="_K5TgTp11b02C-DQ9G_8-1" vertex="1">
          <mxGeometry x="266" y="475" width="60" height="30" as="geometry" />
        </mxCell>
        <mxCell id="SP3IcY2rd0yNS91NgwFC-51" value="open search" style="outlineConnect=0;dashed=0;verticalLabelPosition=bottom;verticalAlign=top;align=center;html=1;shape=mxgraph.aws3.elasticsearch_service;fillColor=#F58534;gradientColor=none;fontSize=16;" parent="_K5TgTp11b02C-DQ9G_8-1" vertex="1">
          <mxGeometry x="300" y="934" width="78" height="77" as="geometry" />
        </mxCell>
        <mxCell id="SP3IcY2rd0yNS91NgwFC-82" value="ECR" style="sketch=0;points=[[0,0,0],[0.25,0,0],[0.5,0,0],[0.75,0,0],[1,0,0],[0,1,0],[0.25,1,0],[0.5,1,0],[0.75,1,0],[1,1,0],[0,0.25,0],[0,0.5,0],[0,0.75,0],[1,0.25,0],[1,0.5,0],[1,0.75,0]];outlineConnect=0;fontColor=#232F3E;gradientColor=#F78E04;gradientDirection=north;fillColor=#D05C17;strokeColor=#ffffff;dashed=0;verticalLabelPosition=bottom;verticalAlign=top;align=center;html=1;fontSize=12;fontStyle=0;aspect=fixed;shape=mxgraph.aws4.resourceIcon;resIcon=mxgraph.aws4.ecr;" parent="_K5TgTp11b02C-DQ9G_8-1" vertex="1">
          <mxGeometry x="442" y="934" width="77" height="77" as="geometry" />
        </mxCell>
        <mxCell id="SP3IcY2rd0yNS91NgwFC-5" value="EKS Cluster" style="sketch=0;points=[[0,0,0],[0.25,0,0],[0.5,0,0],[0.75,0,0],[1,0,0],[0,1,0],[0.25,1,0],[0.5,1,0],[0.75,1,0],[1,1,0],[0,0.25,0],[0,0.5,0],[0,0.75,0],[1,0.25,0],[1,0.5,0],[1,0.75,0]];outlineConnect=0;fontColor=#232F3E;gradientColor=#F78E04;gradientDirection=north;fillColor=#D05C17;strokeColor=#ffffff;dashed=0;verticalLabelPosition=bottom;verticalAlign=top;align=center;html=1;fontSize=12;fontStyle=0;aspect=fixed;shape=mxgraph.aws4.resourceIcon;resIcon=mxgraph.aws4.eks_anywhere;" parent="_K5TgTp11b02C-DQ9G_8-1" vertex="1">
          <mxGeometry x="189" y="607" width="73" height="73" as="geometry" />
        </mxCell>
        <mxCell id="iGsWUzOrBs5eR6An87N_-11" value="&lt;b&gt;api&lt;/b&gt;" style="text;html=1;strokeColor=none;fillColor=none;align=center;verticalAlign=middle;whiteSpace=wrap;rounded=0;fontSize=10;" parent="_K5TgTp11b02C-DQ9G_8-1" vertex="1">
          <mxGeometry x="568" y="472" width="60" height="30" as="geometry" />
        </mxCell>
        <mxCell id="Ws0uSQMyUyCY-R3nEcLO-1" value="UI Pod" style="sketch=0;html=1;dashed=0;whitespace=wrap;fillColor=#2875E2;strokeColor=#ffffff;points=[[0.005,0.63,0],[0.1,0.2,0],[0.9,0.2,0],[0.5,0,0],[0.995,0.63,0],[0.72,0.99,0],[0.5,1,0],[0.28,0.99,0]];verticalLabelPosition=bottom;align=center;verticalAlign=top;shape=mxgraph.kubernetes.icon;prIcon=pod;fontSize=10;" vertex="1" parent="_K5TgTp11b02C-DQ9G_8-1">
          <mxGeometry x="344" y="526.25" width="42" height="31.5" as="geometry" />
        </mxCell>
        <mxCell id="Ws0uSQMyUyCY-R3nEcLO-2" value="UI Pod" style="sketch=0;html=1;dashed=0;whitespace=wrap;fillColor=#2875E2;strokeColor=#ffffff;points=[[0.005,0.63,0],[0.1,0.2,0],[0.9,0.2,0],[0.5,0,0],[0.995,0.63,0],[0.72,0.99,0],[0.5,1,0],[0.28,0.99,0]];verticalLabelPosition=bottom;align=center;verticalAlign=top;shape=mxgraph.kubernetes.icon;prIcon=pod;fontSize=10;" vertex="1" parent="_K5TgTp11b02C-DQ9G_8-1">
          <mxGeometry x="406" y="526.25" width="42" height="31.5" as="geometry" />
        </mxCell>
        <mxCell id="SP3IcY2rd0yNS91NgwFC-31" value="Aurora Postgres DB" style="sketch=0;points=[[0,0,0],[0.25,0,0],[0.5,0,0],[0.75,0,0],[1,0,0],[0,1,0],[0.25,1,0],[0.5,1,0],[0.75,1,0],[1,1,0],[0,0.25,0],[0,0.5,0],[0,0.75,0],[1,0.25,0],[1,0.5,0],[1,0.75,0]];outlineConnect=0;fontColor=#232F3E;gradientColor=#4D72F3;gradientDirection=north;fillColor=#3334B9;strokeColor=#ffffff;dashed=0;verticalLabelPosition=bottom;verticalAlign=top;align=center;html=1;fontSize=12;fontStyle=0;aspect=fixed;shape=mxgraph.aws4.resourceIcon;resIcon=mxgraph.aws4.aurora;" parent="_K5TgTp11b02C-DQ9G_8-1" vertex="1">
          <mxGeometry x="709" y="745" width="63" height="63" as="geometry" />
        </mxCell>
        <mxCell id="Ws0uSQMyUyCY-R3nEcLO-8" value="ACM" style="sketch=0;points=[[0,0,0],[0.25,0,0],[0.5,0,0],[0.75,0,0],[1,0,0],[0,1,0],[0.25,1,0],[0.5,1,0],[0.75,1,0],[1,1,0],[0,0.25,0],[0,0.5,0],[0,0.75,0],[1,0.25,0],[1,0.5,0],[1,0.75,0]];outlineConnect=0;fontColor=#232F3E;fillColor=#DD344C;strokeColor=#ffffff;dashed=0;verticalLabelPosition=bottom;verticalAlign=top;align=center;html=1;fontSize=12;fontStyle=0;aspect=fixed;shape=mxgraph.aws4.resourceIcon;resIcon=mxgraph.aws4.certificate_manager_3;" vertex="1" parent="_K5TgTp11b02C-DQ9G_8-1">
          <mxGeometry x="572.5" y="934" width="78" height="78" as="geometry" />
        </mxCell>
        <mxCell id="Ws0uSQMyUyCY-R3nEcLO-9" value="" style="rounded=1;arcSize=10;dashed=1;strokeColor=#F59D56;fillColor=none;gradientColor=none;dashPattern=8 4;strokeWidth=2;fontSize=16;" vertex="1" parent="_K5TgTp11b02C-DQ9G_8-1">
          <mxGeometry x="959" y="494" width="208" height="103" as="geometry" />
        </mxCell>
        <mxCell id="Ws0uSQMyUyCY-R3nEcLO-10" value="Metric Pod" style="sketch=0;html=1;dashed=0;whitespace=wrap;fillColor=#2875E2;strokeColor=#ffffff;points=[[0.005,0.63,0],[0.1,0.2,0],[0.9,0.2,0],[0.5,0,0],[0.995,0.63,0],[0.72,0.99,0],[0.5,1,0],[0.28,0.99,0]];verticalLabelPosition=bottom;align=center;verticalAlign=top;shape=mxgraph.kubernetes.icon;prIcon=pod;fontSize=12;" vertex="1" parent="_K5TgTp11b02C-DQ9G_8-1">
          <mxGeometry x="982" y="519.75" width="37" height="38" as="geometry" />
        </mxCell>
        <mxCell id="Ws0uSQMyUyCY-R3nEcLO-11" value="Container&amp;nbsp;Insights pod" style="sketch=0;html=1;dashed=0;whitespace=wrap;fillColor=#2875E2;strokeColor=#ffffff;points=[[0.005,0.63,0],[0.1,0.2,0],[0.9,0.2,0],[0.5,0,0],[0.995,0.63,0],[0.72,0.99,0],[0.5,1,0],[0.28,0.99,0]];verticalLabelPosition=bottom;align=center;verticalAlign=top;shape=mxgraph.kubernetes.icon;prIcon=pod;fontSize=12;" vertex="1" parent="_K5TgTp11b02C-DQ9G_8-1">
          <mxGeometry x="1082" y="518.75" width="37" height="38" as="geometry" />
        </mxCell>
        <mxCell id="Ws0uSQMyUyCY-R3nEcLO-12" value="&lt;b&gt;kube-system&lt;/b&gt;" style="text;html=1;strokeColor=none;fillColor=none;align=center;verticalAlign=middle;whiteSpace=wrap;rounded=0;fontSize=10;" vertex="1" parent="_K5TgTp11b02C-DQ9G_8-1">
          <mxGeometry x="955" y="467" width="60" height="30" as="geometry" />
        </mxCell>
        <mxCell id="Ws0uSQMyUyCY-R3nEcLO-14" style="edgeStyle=orthogonalEdgeStyle;rounded=0;orthogonalLoop=1;jettySize=auto;html=1;dashed=1;exitX=1;exitY=0.5;exitDx=0;exitDy=0;" edge="1" parent="_K5TgTp11b02C-DQ9G_8-1" source="KCucEBvM2V7j6gohzdWu-1" target="Ws0uSQMyUyCY-R3nEcLO-13">
          <mxGeometry relative="1" as="geometry">
            <Array as="points">
              <mxPoint x="1344" y="542" />
              <mxPoint x="1344" y="969" />
            </Array>
          </mxGeometry>
        </mxCell>
        <mxCell id="Ws0uSQMyUyCY-R3nEcLO-15" value="pod metric" style="edgeLabel;html=1;align=center;verticalAlign=middle;resizable=0;points=[];fontStyle=1" vertex="1" connectable="0" parent="Ws0uSQMyUyCY-R3nEcLO-14">
          <mxGeometry x="-0.0991" relative="1" as="geometry">
            <mxPoint as="offset" />
          </mxGeometry>
        </mxCell>
        <mxCell id="Ws0uSQMyUyCY-R3nEcLO-13" value="Cloud Watch" style="sketch=0;points=[[0,0,0],[0.25,0,0],[0.5,0,0],[0.75,0,0],[1,0,0],[0,1,0],[0.25,1,0],[0.5,1,0],[0.75,1,0],[1,1,0],[0,0.25,0],[0,0.5,0],[0,0.75,0],[1,0.25,0],[1,0.5,0],[1,0.75,0]];points=[[0,0,0],[0.25,0,0],[0.5,0,0],[0.75,0,0],[1,0,0],[0,1,0],[0.25,1,0],[0.5,1,0],[0.75,1,0],[1,1,0],[0,0.25,0],[0,0.5,0],[0,0.75,0],[1,0.25,0],[1,0.5,0],[1,0.75,0]];outlineConnect=0;fontColor=#232F3E;fillColor=#E7157B;strokeColor=#ffffff;dashed=0;verticalLabelPosition=bottom;verticalAlign=top;align=center;html=1;fontSize=12;fontStyle=0;aspect=fixed;shape=mxgraph.aws4.resourceIcon;resIcon=mxgraph.aws4.cloudwatch_2;" vertex="1" parent="_K5TgTp11b02C-DQ9G_8-1">
          <mxGeometry x="1194" y="937.25" width="78" height="78" as="geometry" />
        </mxCell>
        <mxCell id="Ws0uSQMyUyCY-R3nEcLO-16" value="SNS" style="sketch=0;points=[[0,0,0],[0.25,0,0],[0.5,0,0],[0.75,0,0],[1,0,0],[0,1,0],[0.25,1,0],[0.5,1,0],[0.75,1,0],[1,1,0],[0,0.25,0],[0,0.5,0],[0,0.75,0],[1,0.25,0],[1,0.5,0],[1,0.75,0]];outlineConnect=0;fontColor=#232F3E;fillColor=#E7157B;strokeColor=#ffffff;dashed=0;verticalLabelPosition=bottom;verticalAlign=top;align=center;html=1;fontSize=12;fontStyle=0;aspect=fixed;shape=mxgraph.aws4.resourceIcon;resIcon=mxgraph.aws4.sns;" vertex="1" parent="_K5TgTp11b02C-DQ9G_8-1">
          <mxGeometry x="1015" y="937.25" width="78" height="78" as="geometry" />
        </mxCell>
        <mxCell id="Ws0uSQMyUyCY-R3nEcLO-17" style="edgeStyle=orthogonalEdgeStyle;rounded=0;orthogonalLoop=1;jettySize=auto;html=1;entryX=1;entryY=0.5;entryDx=0;entryDy=0;entryPerimeter=0;" edge="1" parent="_K5TgTp11b02C-DQ9G_8-1" source="Ws0uSQMyUyCY-R3nEcLO-13" target="Ws0uSQMyUyCY-R3nEcLO-16">
          <mxGeometry relative="1" as="geometry" />
        </mxCell>
        <mxCell id="Ws0uSQMyUyCY-R3nEcLO-18" value="alarm trigger" style="edgeLabel;html=1;align=center;verticalAlign=middle;resizable=0;points=[];fontStyle=1" vertex="1" connectable="0" parent="Ws0uSQMyUyCY-R3nEcLO-17">
          <mxGeometry x="0.0365" relative="1" as="geometry">
            <mxPoint as="offset" />
          </mxGeometry>
        </mxCell>
        <mxCell id="Ws0uSQMyUyCY-R3nEcLO-19" value="S3" style="sketch=0;points=[[0,0,0],[0.25,0,0],[0.5,0,0],[0.75,0,0],[1,0,0],[0,1,0],[0.25,1,0],[0.5,1,0],[0.75,1,0],[1,1,0],[0,0.25,0],[0,0.5,0],[0,0.75,0],[1,0.25,0],[1,0.5,0],[1,0.75,0]];outlineConnect=0;fontColor=#232F3E;fillColor=#7AA116;strokeColor=#ffffff;dashed=0;verticalLabelPosition=bottom;verticalAlign=top;align=center;html=1;fontSize=12;fontStyle=0;aspect=fixed;shape=mxgraph.aws4.resourceIcon;resIcon=mxgraph.aws4.s3;" vertex="1" parent="_K5TgTp11b02C-DQ9G_8-1">
          <mxGeometry x="858" y="937.25" width="78" height="78" as="geometry" />
        </mxCell>
        <mxCell id="Ws0uSQMyUyCY-R3nEcLO-28" value="Route53" style="outlineConnect=0;dashed=0;verticalLabelPosition=bottom;verticalAlign=top;align=center;html=1;shape=mxgraph.aws3.route_53;fillColor=#F58536;gradientColor=none;" vertex="1" parent="_K5TgTp11b02C-DQ9G_8-1">
          <mxGeometry x="707.75" y="929.75" width="70.5" height="85.5" as="geometry" />
        </mxCell>
        <mxCell id="SP3IcY2rd0yNS91NgwFC-22" value="API Ingress" style="outlineConnect=0;dashed=0;verticalLabelPosition=bottom;verticalAlign=top;align=center;html=1;shape=mxgraph.aws3.application_load_balancer;fillColor=#F58536;gradientColor=none;fontSize=10;" parent="_K5TgTp11b02C-DQ9G_8-1" vertex="1">
          <mxGeometry x="722" y="245.75" width="50" height="50.5" as="geometry" />
        </mxCell>
        <mxCell id="iGsWUzOrBs5eR6An87N_-6" value="" style="rounded=1;arcSize=10;dashed=1;strokeColor=#F59D56;fillColor=none;gradientColor=none;dashPattern=8 4;strokeWidth=2;fontSize=16;" parent="1" vertex="1">
          <mxGeometry x="261" y="579" width="311" height="103" as="geometry" />
        </mxCell>
        <mxCell id="iGsWUzOrBs5eR6An87N_-7" value="API Pod" style="sketch=0;html=1;dashed=0;whitespace=wrap;fillColor=#2875E2;strokeColor=#ffffff;points=[[0.005,0.63,0],[0.1,0.2,0],[0.9,0.2,0],[0.5,0,0],[0.995,0.63,0],[0.72,0.99,0],[0.5,1,0],[0.28,0.99,0]];verticalLabelPosition=bottom;align=center;verticalAlign=top;shape=mxgraph.kubernetes.icon;prIcon=pod;fontSize=12;" parent="1" vertex="1">
          <mxGeometry x="296" y="611.5" width="37" height="38" as="geometry" />
        </mxCell>
        <mxCell id="iGsWUzOrBs5eR6An87N_-9" style="edgeStyle=none;curved=1;rounded=0;orthogonalLoop=1;jettySize=auto;html=1;entryX=0.545;entryY=0.001;entryDx=0;entryDy=0;entryPerimeter=0;fontSize=12;startSize=8;endSize=8;strokeColor=#82b366;fillColor=#d5e8d4;" parent="1" source="SP3IcY2rd0yNS91NgwFC-22" target="iGsWUzOrBs5eR6An87N_-6" edge="1">
          <mxGeometry relative="1" as="geometry" />
        </mxCell>
        <mxCell id="iGsWUzOrBs5eR6An87N_-10" value="80" style="edgeLabel;html=1;align=center;verticalAlign=middle;resizable=0;points=[];fontSize=16;" parent="iGsWUzOrBs5eR6An87N_-9" vertex="1" connectable="0">
          <mxGeometry x="-0.1039" relative="1" as="geometry">
            <mxPoint as="offset" />
          </mxGeometry>
        </mxCell>
        <mxCell id="Ws0uSQMyUyCY-R3nEcLO-3" value="API Pod" style="sketch=0;html=1;dashed=0;whitespace=wrap;fillColor=#2875E2;strokeColor=#ffffff;points=[[0.005,0.63,0],[0.1,0.2,0],[0.9,0.2,0],[0.5,0,0],[0.995,0.63,0],[0.72,0.99,0],[0.5,1,0],[0.28,0.99,0]];verticalLabelPosition=bottom;align=center;verticalAlign=top;shape=mxgraph.kubernetes.icon;prIcon=pod;fontSize=12;" vertex="1" parent="1">
          <mxGeometry x="363" y="608" width="37" height="38" as="geometry" />
        </mxCell>
        <mxCell id="Ws0uSQMyUyCY-R3nEcLO-4" value="API Pod" style="sketch=0;html=1;dashed=0;whitespace=wrap;fillColor=#2875E2;strokeColor=#ffffff;points=[[0.005,0.63,0],[0.1,0.2,0],[0.9,0.2,0],[0.5,0,0],[0.995,0.63,0],[0.72,0.99,0],[0.5,1,0],[0.28,0.99,0]];verticalLabelPosition=bottom;align=center;verticalAlign=top;shape=mxgraph.kubernetes.icon;prIcon=pod;fontSize=12;" vertex="1" parent="1">
          <mxGeometry x="432" y="608" width="37" height="38" as="geometry" />
        </mxCell>
        <mxCell id="Ws0uSQMyUyCY-R3nEcLO-5" value="API Pod" style="sketch=0;html=1;dashed=0;whitespace=wrap;fillColor=#2875E2;strokeColor=#ffffff;points=[[0.005,0.63,0],[0.1,0.2,0],[0.9,0.2,0],[0.5,0,0],[0.995,0.63,0],[0.72,0.99,0],[0.5,1,0],[0.28,0.99,0]];verticalLabelPosition=bottom;align=center;verticalAlign=top;shape=mxgraph.kubernetes.icon;prIcon=pod;fontSize=12;" vertex="1" parent="1">
          <mxGeometry x="502" y="608" width="37" height="38" as="geometry" />
        </mxCell>
        <mxCell id="SP3IcY2rd0yNS91NgwFC-33" style="edgeStyle=none;curved=1;rounded=0;orthogonalLoop=1;jettySize=auto;html=1;fontSize=15;startSize=8;endSize=8;exitX=0.533;exitY=1.028;exitDx=0;exitDy=0;exitPerimeter=0;" parent="1" source="iGsWUzOrBs5eR6An87N_-6" target="SP3IcY2rd0yNS91NgwFC-31" edge="1">
          <mxGeometry relative="1" as="geometry">
            <mxPoint x="507.8119369369372" y="684" as="sourcePoint" />
          </mxGeometry>
        </mxCell>
        <mxCell id="Ws0uSQMyUyCY-R3nEcLO-6" value="5432" style="edgeLabel;html=1;align=center;verticalAlign=middle;resizable=0;points=[];" vertex="1" connectable="0" parent="SP3IcY2rd0yNS91NgwFC-33">
          <mxGeometry x="-0.0078" y="-1" relative="1" as="geometry">
            <mxPoint as="offset" />
          </mxGeometry>
        </mxCell>
        <mxCell id="Ws0uSQMyUyCY-R3nEcLO-26" style="rounded=0;orthogonalLoop=1;jettySize=auto;html=1;fillColor=#d5e8d4;strokeColor=#82b366;" edge="1" parent="1" source="Ws0uSQMyUyCY-R3nEcLO-20" target="SP3IcY2rd0yNS91NgwFC-22">
          <mxGeometry relative="1" as="geometry" />
        </mxCell>
        <mxCell id="Ws0uSQMyUyCY-R3nEcLO-27" value="api.acme.com&lt;br&gt;443" style="edgeLabel;html=1;align=center;verticalAlign=middle;resizable=0;points=[];fontStyle=1" vertex="1" connectable="0" parent="Ws0uSQMyUyCY-R3nEcLO-26">
          <mxGeometry x="-0.2962" y="-1" relative="1" as="geometry">
            <mxPoint x="17" y="33" as="offset" />
          </mxGeometry>
        </mxCell>
        <mxCell id="Ws0uSQMyUyCY-R3nEcLO-20" value="User /Client" style="html=1;verticalLabelPosition=bottom;align=center;labelBackgroundColor=#ffffff;verticalAlign=top;strokeWidth=2;strokeColor=#0080F0;shadow=0;dashed=0;shape=mxgraph.ios7.icons.user;" vertex="1" parent="1">
          <mxGeometry x="211" y="-145" width="97" height="104" as="geometry" />
        </mxCell>
        <mxCell id="Ws0uSQMyUyCY-R3nEcLO-22" style="orthogonalLoop=1;jettySize=auto;html=1;entryX=0.5;entryY=0;entryDx=0;entryDy=0;entryPerimeter=0;strokeColor=default;rounded=0;" edge="1" parent="1" source="Ws0uSQMyUyCY-R3nEcLO-20" target="SP3IcY2rd0yNS91NgwFC-16">
          <mxGeometry relative="1" as="geometry" />
        </mxCell>
        <mxCell id="Ws0uSQMyUyCY-R3nEcLO-25" value="www.acme.com&lt;br&gt;443" style="edgeLabel;html=1;align=center;verticalAlign=middle;resizable=0;points=[];fontStyle=1" vertex="1" connectable="0" parent="Ws0uSQMyUyCY-R3nEcLO-22">
          <mxGeometry x="-0.2865" relative="1" as="geometry">
            <mxPoint x="-25" y="35" as="offset" />
          </mxGeometry>
        </mxCell>
      </root>
    </mxGraphModel>
  </diagram>
</mxfile>
